<?xml version="1.0" encoding="UTF-8"?>
<svg width="1000px" height="1000px" viewBox="0 0 1000 1000" version="1.1" xmlns="http://www.w3.org/2000/svg" xmlns:xlink="http://www.w3.org/1999/xlink">
    <title>SVG Image</title>
    <g id="SVG-Image" stroke="none" stroke-width="1" fill="none" fill-rule="evenodd">
        <rect id="Rectangle" fill="#FAFAFA" x="0" y="0" width="1000" height="1000"></rect>
        <path d="M280.128906,525.483398 C282.121094,525.483398 283.65918,524.934082 284.743164,523.835449 C285.827148,522.736816 286.369141,521.352539 286.369141,519.682617 C286.369141,517.983398 285.827148,516.569824 284.743164,515.441895 C283.65918,514.313965 282.121094,513.75 280.128906,513.75 C278.166016,513.75 276.642578,514.313965 275.558594,515.441895 C274.474609,516.569824 273.932617,517.983398 273.932617,519.682617 C273.932617,521.381836 274.489258,522.773438 275.602539,523.857422 C276.71582,524.941406 278.224609,525.483398 280.128906,525.483398 Z M320.6375,525.878906 C327.639453,525.878906 333.183887,524.304199 337.270801,521.154785 C341.357715,518.005371 343.401172,513.764648 343.401172,508.432617 C343.401172,505.151367 342.698047,502.287598 341.291797,499.841309 C339.885547,497.39502 337.673633,495.227051 334.656055,493.337402 C331.638477,491.447754 327.639453,489.763184 322.658984,488.283691 C317.678516,486.804199 314.104297,485.280762 311.936328,483.713379 C309.768359,482.145996 308.684375,480.19043 308.684375,477.84668 C308.684375,475.063477 309.687793,472.895508 311.694629,471.342773 C313.701465,469.790039 316.521289,469.013672 320.154102,469.013672 C324.050586,469.013672 327.046191,469.958496 329.140918,471.848145 C331.235645,473.737793 332.283008,476.352539 332.283008,479.692383 L332.283008,479.692383 L343.357227,479.692383 C343.357227,476.000977 342.361133,472.63916 340.368945,469.606934 C338.376758,466.574707 335.6375,464.238281 332.151172,462.597656 C328.664844,460.957031 324.695117,460.136719 320.241992,460.136719 C313.533008,460.136719 308.076465,461.806641 303.872363,465.146484 C299.668262,468.486328 297.566211,472.734375 297.566211,477.890625 C297.566211,483.779297 300.48125,488.554688 306.311328,492.216797 C309.358203,494.121094 313.459766,495.849609 318.616016,497.402344 C323.772266,498.955078 327.33916,500.493164 329.316699,502.016602 C331.294238,503.540039 332.283008,505.708008 332.283008,508.520508 C332.283008,511.098633 331.308887,513.171387 329.360645,514.73877 C327.412402,516.306152 324.504687,517.089844 320.6375,517.089844 C316.155078,517.089844 312.712695,516.09375 310.310352,514.101562 C307.908008,512.109375 306.706836,509.296875 306.706836,505.664062 L306.706836,505.664062 L295.588672,505.664062 C295.588672,509.677734 296.665332,513.193359 298.818652,516.210938 C300.971973,519.228516 303.989551,521.594238 307.871387,523.308105 C311.753223,525.021973 316.008594,525.878906 320.6375,525.878906 Z M380.350195,525 L403.377539,461.015625 L391.160742,461.015625 L374.900977,511.069336 L358.816992,461.015625 L346.644141,461.015625 L369.583594,525 L380.350195,525 Z M434.657617,525.878906 C439.872461,525.878906 444.530664,525.102539 448.632227,523.549805 C452.733789,521.99707 455.941797,519.711914 458.25625,516.694336 L458.25625,516.694336 L458.25625,492.172852 L433.998438,492.172852 L433.998438,500.610352 L447.182031,500.610352 L447.182031,513.134766 C444.779688,515.712891 440.736719,517.001953 435.053125,517.001953 C429.867578,517.001953 425.817285,515.090332 422.902246,511.26709 C419.987207,507.443848 418.529688,502.075195 418.529688,495.161133 L418.529688,495.161133 L418.529688,490.239258 C418.617578,483.295898 419.95791,478.029785 422.550684,474.440918 C425.143457,470.852051 428.930078,469.057617 433.910547,469.057617 C441.615625,469.057617 446.083398,472.910156 447.313867,480.615234 L447.313867,480.615234 L458.212305,480.615234 C457.362695,473.994141 454.843164,468.925781 450.653711,465.410156 C446.464258,461.894531 440.809961,460.136719 433.69082,460.136719 C425.399805,460.136719 418.939844,462.854004 414.310938,468.288574 C409.682031,473.723145 407.367578,481.274414 407.367578,490.942383 L407.367578,490.942383 L407.367578,495.952148 C407.455469,501.987305 408.62002,507.268066 410.86123,511.794434 C413.102441,516.320801 416.288477,519.799805 420.419336,522.231445 C424.550195,524.663086 429.296289,525.878906 434.657617,525.878906 Z M503.018555,525 L503.018555,461.015625 L491.944336,461.015625 L491.944336,525 L503.018555,525 Z M525.50957,525 L525.50957,490.546875 C527.29668,487.060547 530.328906,485.317383 534.60625,485.317383 C540.172656,485.317383 543.029102,488.115234 543.175586,493.710938 L543.175586,493.710938 L543.175586,525 L553.854297,525 L553.810352,492.392578 C554.425586,490.283203 555.502246,488.57666 557.040332,487.272949 C558.578418,485.969238 560.563281,485.317383 562.994922,485.317383 C566.041797,485.317383 568.224414,486.020508 569.542773,487.426758 C570.861133,488.833008 571.520313,491.044922 571.520313,494.0625 L571.520313,494.0625 L571.520313,525 L582.199023,525 L582.199023,493.754883 C582.14043,488.100586 580.829395,483.823242 578.265918,480.922852 C575.702441,478.022461 571.798633,476.572266 566.554492,476.572266 C560.284961,476.572266 555.42168,479.003906 551.964648,483.867188 C549.620898,479.003906 545.270313,476.572266 538.912891,476.572266 C533.112109,476.572266 528.541797,478.520508 525.201953,482.416992 L525.201953,482.416992 L524.894336,477.451172 L514.830859,477.451172 L514.830859,525 L525.50957,525 Z M607.063086,525.878906 C611.984961,525.878906 616.145117,524.106445 619.543555,520.561523 C619.895117,522.612305 620.305273,524.091797 620.774023,525 L620.774023,525 L631.672461,525 L631.672461,524.25293 C630.471289,521.704102 629.870703,518.291016 629.870703,514.013672 L629.870703,514.013672 L629.870703,492.568359 C629.782812,487.5 628.083594,483.566895 624.773047,480.769043 C621.4625,477.971191 617.024023,476.572266 611.457617,476.572266 C607.795508,476.572266 604.477637,477.216797 601.504004,478.505859 C598.530371,479.794922 596.179297,481.574707 594.450781,483.845215 C592.722266,486.115723 591.858008,488.554688 591.858008,491.162109 L591.858008,491.162109 L602.536719,491.162109 C602.536719,489.287109 603.313086,487.741699 604.86582,486.525879 C606.418555,485.310059 608.410742,484.702148 610.842383,484.702148 C613.654883,484.702148 615.749609,485.441895 617.126562,486.921387 C618.503516,488.400879 619.191992,490.371094 619.191992,492.832031 L619.191992,492.832031 L619.191992,495.952148 L612.644141,495.952148 C605.642187,495.952148 600.258887,497.307129 596.494238,500.01709 C592.72959,502.727051 590.847266,506.616211 590.847266,511.68457 C590.847266,515.698242 592.356055,519.067383 595.373633,521.791992 C598.391211,524.516602 602.287695,525.878906 607.063086,525.878906 Z M609.040625,517.30957 C606.755469,517.30957 604.931738,516.70166 603.569434,515.48584 C602.207129,514.27002 601.525977,512.636719 601.525977,510.585938 C601.525977,508.066406 602.52207,506.118164 604.514258,504.741211 C606.506445,503.364258 609.480078,502.675781 613.435156,502.675781 L613.435156,502.675781 L619.191992,502.675781 L619.191992,511.640625 C618.254492,513.369141 616.855566,514.746094 614.995215,515.771484 C613.134863,516.796875 611.15,517.30957 609.040625,517.30957 Z M658.777734,543.720703 C665.369531,543.720703 670.606348,541.918945 674.488184,538.31543 C678.37002,534.711914 680.310937,529.790039 680.310937,523.549805 L680.310937,523.549805 L680.310937,477.451172 L670.686914,477.451172 L670.203516,482.241211 C667.098047,478.461914 662.835352,476.572266 657.41543,476.572266 C651.673242,476.572266 647.066309,478.776855 643.594629,483.186035 C640.122949,487.595215 638.387109,493.491211 638.387109,500.874023 C638.387109,508.696289 640.152246,514.819336 643.68252,519.243164 C647.212793,523.666992 651.761133,525.878906 657.327539,525.878906 C662.454492,525.878906 666.556055,524.165039 669.632227,520.737305 L669.632227,520.737305 L669.632227,523.945312 C669.632227,527.666016 668.606836,530.48584 666.556055,532.404785 C664.505273,534.32373 661.707422,535.283203 658.1625,535.283203 C653.357812,535.283203 649.314844,533.334961 646.033594,529.438477 L646.033594,529.438477 L640.979883,535.854492 C642.708398,538.198242 645.235254,540.095215 648.560449,541.54541 C651.885645,542.995605 655.291406,543.720703 658.777734,543.720703 Z M660.052148,517.177734 C656.595117,517.177734 653.89248,515.808105 651.944238,513.068848 C649.995996,510.32959 649.021875,506.572266 649.021875,501.796875 C649.021875,496.376953 649.995996,492.275391 651.944238,489.492188 C653.89248,486.708984 656.624414,485.317383 660.140039,485.317383 C664.44668,485.317383 667.610742,487.119141 669.632227,490.722656 L669.632227,490.722656 L669.632227,511.640625 C667.552148,515.332031 664.358789,517.177734 660.052148,517.177734 Z M711.415234,525.878906 C715.370312,525.878906 718.937207,525.095215 722.115918,523.527832 C725.294629,521.960449 727.836133,519.755859 729.74043,516.914062 L729.74043,516.914062 L723.983594,511.420898 C720.907422,515.375977 716.923047,517.353516 712.030469,517.353516 C708.544141,517.353516 705.651074,516.210938 703.35127,513.925781 C701.051465,511.640625 699.74043,508.535156 699.418164,504.609375 L699.418164,504.609375 L730.4875,504.609375 L730.4875,500.302734 C730.4875,492.744141 728.722363,486.899414 725.19209,482.768555 C721.661816,478.637695 716.659375,476.572266 710.184766,476.572266 C706.1125,476.572266 702.421094,477.612305 699.110547,479.692383 C695.8,481.772461 693.229199,484.680176 691.398145,488.415527 C689.56709,492.150879 688.651562,496.391602 688.651562,501.137695 L688.651562,501.137695 L688.651562,502.456055 C688.651562,509.545898 690.753613,515.222168 694.957715,519.484863 C699.161816,523.747559 704.647656,525.878906 711.415234,525.878906 Z M719.940625,496.787109 L699.593945,496.787109 C700.091992,493.125 701.241895,490.268555 703.043652,488.217773 C704.84541,486.166992 707.211133,485.141602 710.14082,485.141602 C713.099805,485.141602 715.414258,486.057129 717.08418,487.888184 C718.754102,489.719238 719.70625,492.421875 719.940625,495.996094 L719.940625,495.996094 L719.940625,496.787109 Z" id="Text" fill="#333333" fill-rule="nonzero"></path>
    </g>
</svg>