<?xml version="1.0" encoding="UTF-8"?>
<svg width="16px" height="16px" viewBox="0 0 16 16" version="1.1" xmlns="http://www.w3.org/2000/svg" xmlns:xlink="http://www.w3.org/1999/xlink">
    <title>favicon</title>
    <g id="favicon" stroke="none" stroke-width="1" fill="none" fill-rule="evenodd">
        <rect id="Rectangle" fill="#333333" x="0" y="0" width="16" height="16" rx="4"></rect>
        <path d="M9.33333333,8 C9.33333333,8.36805556 9.203125,8.68229167 8.94270833,8.94270833 C8.68229167,9.203125 8.36805556,9.33333333 8,9.33333333 C7.63194444,9.33333333 7.31770833,9.203125 7.05729167,8.94270833 C6.796875,8.68229167 6.66666667,8.36805556 6.66666667,8 C6.66666667,7.63194444 6.796875,7.31770833 7.05729167,7.05729167 C7.31770833,6.796875 7.63194444,6.66666667 8,6.66666667 C8.36805556,6.66666667 8.68229167,6.796875 8.94270833,7.05729167 C9.203125,7.31770833 9.33333333,7.63194444 9.33333333,8 Z M12,8.56770833 L12,7.41145833 C12,7.36979167 11.9861111,7.32986111 11.9583333,7.29166667 C11.9305556,7.25347222 11.8958333,7.23090278 11.8541667,7.22395833 L10.890625,7.078125 C10.8246528,6.890625 10.7569444,6.73263889 10.6875,6.60416667 C10.8090278,6.43055556 10.9947917,6.19097222 11.2447917,5.88541667 C11.2795139,5.84375 11.296875,5.80034722 11.296875,5.75520833 C11.296875,5.71006944 11.28125,5.67013889 11.25,5.63541667 C11.15625,5.50694444 10.984375,5.31944444 10.734375,5.07291667 C10.484375,4.82638889 10.3211806,4.703125 10.2447917,4.703125 C10.203125,4.703125 10.1579861,4.71875 10.109375,4.75 L9.390625,5.3125 C9.23784722,5.23263889 9.07986111,5.16666667 8.91666667,5.11458333 C8.86111111,4.64236111 8.81076389,4.31944444 8.765625,4.14583333 C8.74131944,4.04861111 8.67881944,4 8.578125,4 L7.421875,4 C7.37326389,4 7.33072917,4.01475694 7.29427083,4.04427083 C7.2578125,4.07378472 7.23784722,4.11111111 7.234375,4.15625 L7.08854167,5.11458333 C6.91840278,5.17013889 6.76215278,5.234375 6.61979167,5.30729167 L5.88541667,4.75 C5.85069444,4.71875 5.80729167,4.703125 5.75520833,4.703125 C5.70659722,4.703125 5.66319444,4.72222222 5.625,4.76041667 C5.1875,5.15625 4.90104167,5.44791667 4.765625,5.63541667 C4.74131944,5.67013889 4.72916667,5.71006944 4.72916667,5.75520833 C4.72916667,5.796875 4.74305556,5.83680556 4.77083333,5.875 C4.82291667,5.94791667 4.91145833,6.06336806 5.03645833,6.22135417 C5.16145833,6.37934028 5.25520833,6.50173611 5.31770833,6.58854167 C5.22395833,6.76215278 5.15277778,6.93402778 5.10416667,7.10416667 L4.15104167,7.24479167 C4.10590278,7.25173611 4.06944444,7.2734375 4.04166667,7.30989583 C4.01388889,7.34635417 4,7.38715278 4,7.43229167 L4,8.58854167 C4,8.63020833 4.01388889,8.67013889 4.04166667,8.70833333 C4.06944444,8.74652778 4.10243056,8.76909722 4.140625,8.77604167 L5.109375,8.921875 C5.15798611,9.08159722 5.22569444,9.24131944 5.3125,9.40104167 C5.17361111,9.59895833 4.98784722,9.83854167 4.75520833,10.1197917 C4.72048611,10.1614583 4.703125,10.203125 4.703125,10.2447917 C4.703125,10.2795139 4.71875,10.3194444 4.75,10.3645833 C4.84027778,10.4895833 5.01128472,10.6762153 5.26302083,10.9244792 C5.51475694,11.1727431 5.67881944,11.296875 5.75520833,11.296875 C5.80034722,11.296875 5.84548611,11.2795139 5.890625,11.2447917 L6.609375,10.6875 C6.76215278,10.7673611 6.92013889,10.8333333 7.08333333,10.8854167 C7.13888889,11.3576389 7.18923611,11.6805556 7.234375,11.8541667 C7.25868056,11.9513889 7.32118056,12 7.421875,12 L8.578125,12 C8.62673611,12 8.66927083,11.9852431 8.70572917,11.9557292 C8.7421875,11.9262153 8.76215278,11.8888889 8.765625,11.84375 L8.91145833,10.8854167 C9.08159722,10.8298611 9.23784722,10.765625 9.38020833,10.6927083 L10.1197917,11.25 C10.1510417,11.28125 10.1927083,11.296875 10.2447917,11.296875 C10.2899306,11.296875 10.3333333,11.2795139 10.375,11.2447917 C10.8229167,10.8315972 11.109375,10.5364583 11.234375,10.359375 C11.2586806,10.3315972 11.2708333,10.2934028 11.2708333,10.2447917 C11.2708333,10.203125 11.2569444,10.1631944 11.2291667,10.125 C11.1770833,10.0520833 11.0885417,9.93663194 10.9635417,9.77864583 C10.8385417,9.62065972 10.7447917,9.49826389 10.6822917,9.41145833 C10.7725694,9.23784722 10.84375,9.06770833 10.8958333,8.90104167 L11.8489583,8.75520833 C11.8940972,8.74826389 11.9305556,8.7265625 11.9583333,8.69010417 C11.9861111,8.65364583 12,8.61284722 12,8.56770833 Z" id="Path" fill="#FAFAFA" fill-rule="nonzero" transform="translate(8.000000, 8.000000) scale(-1, 1) rotate(-180.000000) translate(-8.000000, -8.000000) "></path>
    </g>
</svg>