<?xml version="1.0" encoding="UTF-8"?>
<svg width="16px" height="16px" viewBox="0 0 16 16" version="1.1" xmlns="http://www.w3.org/2000/svg" xmlns:xlink="http://www.w3.org/1999/xlink">
    <title>favicon</title>
    <g id="favicon" stroke="none" stroke-width="1" fill="none" fill-rule="evenodd">
        <path d="M15,15 L11,15 L11.0010994,9 C11,7 9.27392479,6 8,6 C6.72691747,6 5,7 5.00011552,9 L5,15 L1,15 L1,11.5 L0.5,11 L0.5,10 L1,10 L1,8 L0.5,7 L1,7 L1,4.5 L0.5,4 L0.5,3 L5,3 L5,4 L11,4 L11,3 L15.5,3 L15.5,4 L15,4.5 L15,7 L15.5,7 L15,8 L15,10 L15.5,10 L15.5,11 L15,11.5 L15,15 Z M3,1 C3.55228475,1 4,1.44771525 4,2 C4,2.55228475 3.55228475,3 3,3 C2.44771525,3 2,2.55228475 2,2 C2,1.44771525 2.44771525,1 3,1 Z M13,1 C13.5522847,1 14,1.44771525 14,2 C14,2.55228475 13.5522847,3 13,3 C12.4477153,3 12,2.55228475 12,2 C12,1.44771525 12.4477153,1 13,1 Z" id="Shape" fill="#4667F2"></path>
    </g>
</svg>