<?xml version="1.0" encoding="UTF-8"?>
<svg width="115px" height="27px" viewBox="0 0 115 27" version="1.1" xmlns="http://www.w3.org/2000/svg" xmlns:xlink="http://www.w3.org/1999/xlink">
    <title>quote-bottom</title>
    <g id="quote-bottom" stroke="none" stroke-width="1" fill="none" fill-rule="evenodd">
        <path d="M9,18.2827139 C9,17.7668723 9.07638375,17.242739 9.2361866,16.7241336 C10.0859558,13.970047 13.8368001,4.98440309 26.4165006,4.98440309 C32.9292205,4.98440309 37.1232915,8.11663946 40.4934734,10.6335344 C42.7382511,12.3099567 44.6772426,13.7582329 47.1082058,14.2444255 C47.9529498,14.413525 48.2082323,14.46428 50.4070291,11.6574284 C52.4724056,9.02093264 55.5933351,5.03666566 61.3371923,5.0190773 C69.1851203,4.99495611 73.2445147,8.60911366 76.2089079,11.248122 C78.5979102,13.3750578 79.7625112,14.3152815 82.3326737,14.3137739 C90.4755837,14.3087486 95.3088661,7.55205298 95.5106298,7.26410633 C95.5106298,7.26410633 93.4331927,9.59280573 95.489775,7.2950116 L97.546106,4.99696621 C103.738969,-0.442109732 109.169753,6.4836855 106.131489,10.8644444 C106.131489,10.8644444 105.90083,11.139828 104.220639,13.2328433 C102.540196,15.3258586 96.1513488,24.8635259 82.3394578,24.8726754 C75.6380398,24.8765915 71.9100604,21.5576672 69.1878842,19.1344932 C66.6883264,16.9090626 65.1797473,15.5658142 61.3698564,15.5776235 C60.7906967,15.5793823 59.9441939,16.6047839 58.7190387,18.1686408 C56.3973746,21.1325314 52.5116025,26.0929525 45.0373016,24.5981929 C40.2690961,23.644401 36.8901201,21.1209733 34.1752305,19.0935374 C31.1389763,16.8258948 29.2818963,15.5432005 26.4165006,15.5432005 C22.5907801,15.5432005 20.2050442,16.9882103 19.325626,19.8375252 C18.4660575,22.6235221 15.5102073,24.1851176 12.7242105,23.3255491 C10.4568191,22.6257835 9,20.5375421 9,18.2827139" id="Fill-1" fill="#FFFFFF"></path>
    </g>
</svg>