<?xml version="1.0" encoding="UTF-8"?>
<svg width="115px" height="27px" viewBox="0 0 115 27" version="1.1" xmlns="http://www.w3.org/2000/svg" xmlns:xlink="http://www.w3.org/1999/xlink">
    <title>quote-top</title>
    <g id="quote-top" stroke="none" stroke-width="1" fill="none" fill-rule="evenodd">
        <path d="M1.60272757,21.0860675 C1,19.9989727 0.818019079,18.6803451 1.19986223,17.3946032 C1.32104153,16.9857718 2.47173299,13.2970264 5.44349783,9.68162128 C9.65461932,4.55909064 15.3727168,2.06386804 21.9802026,2.46540369 C29.6944574,2.93421119 33.6387753,8.68710235 36.2491362,12.4934437 C36.9438186,13.5072399 37.7161045,15.931612 40.1581454,16.2693914 C42.6247564,16.3114767 43.4176083,14.0020647 45.5075957,10.8332407 C47.9534713,7.12446108 51.3034039,2.04505889 59.9974648,1.12580585 C69.4374555,0.127577264 73.4131819,5.29353876 76.0440947,8.71204751 C78.2604262,11.591626 78.6310448,11.9395972 80.9092873,11.427326 C82.0898033,11.161671 83.4514317,10.1966948 84.8935393,9.17483287 C87.3968579,7.4008066 90.5121853,5.19317252 94.8113108,5.04319767 C99.9504742,4.86360873 104.011595,5.93268755 107.226222,8.31107136 C110.672402,10.8608235 112.963886,14.7590174 114.231746,20.2273487 C114.829955,22.8077993 113.223103,25.3848016 110.642566,25.9833143 C108.061811,26.5814358 105.484613,24.974693 104.886492,22.3939383 C103.31969,15.6356751 100.254477,14.451861 95.1462073,14.6304366 C93.7856055,14.6777817 92.4712183,15.5623562 90.4398628,17.0021406 C88.3910943,18.4538787 86.0692347,20.0994456 83.0144913,20.7864042 C79.3841788,21.6031627 76.1665592,21.1792225 73.452148,19.5265531 C71.2126903,18.1632539 69.7407054,16.2505066 68.4418911,14.5629712 C66.2225872,11.6794142 65.1084871,10.2319178 61.0063519,10.6657623 C56.8172003,11.1087135 55.5747684,12.9932169 53.5157185,16.1149711 C50.9608228,19.9887767 48.9055424,25.9938882 39.4204262,25.7873055 C34.6251977,25.6826495 30.4950276,21.066199 28.3369785,17.9185273 C25.9084414,14.3760761 24.2293757,12.2129274 21.3983038,12.0406676 C17.8891976,11.8276577 15.094534,13.0484025 12.854417,15.7733768 C11.1080022,17.8983711 10.4020823,20.1048689 10.3958919,20.1264574 C9.64144757,22.6657105 6.97144234,24.1127289 4.43210199,23.3585887 C3.17819952,22.9862044 2.19045811,22.1463614 1.60272757,21.0860675" id="Fill-1" fill="#FFFFFF"></path>
    </g>
</svg>