<?xml version="1.0" encoding="UTF-8"?>
<svg width="180px" height="180px" viewBox="0 0 180 180" version="1.1" xmlns="http://www.w3.org/2000/svg" xmlns:xlink="http://www.w3.org/1999/xlink">
    <title>sticker-compo</title>
    <g id="sticker-compo" stroke="none" stroke-width="1" fill="none" fill-rule="evenodd">
        <path d="M40.0115542,175.123236 C30.0131802,171.520191 -16.7521431,163.227925 9.3521434,101.17983 C35.4574614,39.1327664 86.1063995,55.3995937 101.461377,68.1262973 C122.33284,85.4266922 125.871933,127.172714 107.389434,153.940258 C88.9069344,180.709865 50.2904973,178.827369 40.0115542,175.123236" id="circle" fill="#A3CD38"></path>
        <path d="M112.5,137 C115.020558,137 116.886921,139.062107 116.996215,141.5 C117.104986,143.930042 114.851649,146 112.5,146 C109.979442,146 108.112556,143.938416 108.003785,141.5 C107.895014,139.069958 110.148351,137 112.5,137 Z M78.5,118 C81.0205574,118 82.8874436,120.062107 82.9962145,122.5 C83.1049855,124.930042 80.8521716,127 78.5,127 C75.9799647,127 74.1130785,124.938416 74.0037846,122.5 C73.8950137,120.069958 76.1483505,118 78.5,118 Z M31.5,113 C34.020558,113 35.8869215,115.061704 35.9962154,117.499738 C36.1049863,119.929921 33.8516493,122 31.5,122 C28.979442,122 27.1125556,119.938296 27.0037846,117.499738 C26.8950137,115.069555 29.1483507,113 31.5,113 Z M119.5,103 C122.020558,103 123.886921,105.062107 123.996215,107.5 C124.104986,109.930042 121.851649,112 119.5,112 C116.979443,112 115.112556,109.938416 115.003785,107.5 C114.895015,105.069958 117.147828,103 119.5,103 Z M53.5,75 C56.020558,75 57.8874444,77.061704 57.9962154,79.4997383 C58.1049863,81.9299215 55.8516493,84 53.5,84 C50.979442,84 49.1130785,81.938296 49.0037846,79.4997383 C48.8950137,77.0695551 51.1483507,75 53.5,75 Z M98.5,62 C101.020558,62 102.886921,64.061704 102.996215,66.4997383 C103.104986,68.9299215 100.851649,71 98.5,71 C95.979442,71 94.1125556,68.938296 94.0037846,66.4997383 C93.8950137,64.0695551 96.1483507,62 98.5,62 Z M20.5,43 C23.0200353,43 24.8869215,45.0621075 24.9962154,47.5 C25.1049863,49.9300419 22.8516495,52 20.5,52 C17.9794426,52 16.1125564,49.9378925 16.0037855,47.5 C15.8950145,45.0699581 18.1478284,43 20.5,43 Z M126.500244,37 C129.020142,37 130.886928,39.0621075 130.996216,41.5 C131.104981,43.9300419 128.851766,46 126.500244,46 C123.979823,46 122.113038,43.9384159 122.00375,41.5 C121.895507,39.0699581 124.148199,37 126.500244,37 Z M173.5,27 C176.020557,27 177.887444,29.0621075 177.996215,31.5 C178.104985,33.9300419 175.852172,36 173.5,36 C170.979965,36 169.113079,33.9384159 169.003785,31.5 C168.895014,29.0699581 171.148351,27 173.5,27 Z M62.5,18 C65.0205574,18 66.8874436,20.0621075 66.9962145,22.5 C67.1049855,24.9300419 64.8521716,27 62.5,27 C59.9799647,27 58.1130785,24.9384159 58.0037846,22.5 C57.8950137,20.0699581 60.1483505,18 62.5,18 Z M98.5,9 C101.020558,9 102.886921,11.0621075 102.996215,13.5 C103.104986,15.9300419 100.851649,18 98.5,18 C95.979442,18 94.1125556,15.9378925 94.0037846,13.5 C93.8950137,11.0699581 96.1483507,9 98.5,9 Z M146.5,3 C149.020035,3 150.886921,5.06210747 150.996215,7.5 C151.104986,9.93004187 148.851649,12 146.5,12 C143.979443,12 142.112556,9.93841591 142.003785,7.5 C141.895015,5.06995813 144.147828,3 146.5,3 Z" id="dots" fill="#1E6FC9" transform="translate(97.000000, 74.500000) scale(-1, -1) translate(-97.000000, -74.500000) "></path>
    </g>
</svg>