<?xml version="1.0" encoding="UTF-8"?>
<svg width="180px" height="180px" viewBox="0 0 180 180" version="1.1" xmlns="http://www.w3.org/2000/svg" xmlns:xlink="http://www.w3.org/1999/xlink">
    <title>sticker-dots</title>
    <g id="sticker-dots" stroke="none" stroke-width="1" fill="none" fill-rule="evenodd">
        <path d="M106,154 C108.80062,154 110.874357,156.291231 110.995795,159 C111.116651,161.700047 108.612944,164 106,164 C103.19938,164 101.125062,161.709351 101.004205,159 C100.883349,156.299953 103.387056,154 106,154 Z M70,134 C72.8006193,134 74.8749373,136.291231 74.9957939,139 C75.1166506,141.700047 72.613524,144 70,144 C67.1999608,144 65.1256428,141.709351 65.0042051,139 C64.8833485,136.299953 67.3870561,134 70,134 Z M20,129 C22.80062,129 24.8743572,131.290782 24.9957949,133.999709 C25.1166515,136.699913 22.6129436,139 20,139 C17.19938,139 15.1250618,136.709218 15.0042051,133.999709 C14.8833485,131.299506 17.3870564,129 20,129 Z M114,118 C116.80062,118 118.874357,120.291231 118.995795,123 C119.116651,125.700047 116.612944,128 114,128 C111.199381,128 109.125063,125.709351 109.004206,123 C108.883349,120.299953 111.386476,118 114,118 Z M44,88 C46.80062,88 48.8749382,90.2907822 48.9957949,92.9997092 C49.1166515,95.6999128 46.6129436,98 44,98 C41.19938,98 39.1256428,95.7092178 39.0042051,92.9997092 C38.8833485,90.2995057 41.3870564,88 44,88 Z M91,75 C93.80062,75 95.8743572,77.2907822 95.9957949,79.9997092 C96.1166515,82.6999128 93.6129436,85 91,85 C88.19938,85 86.1250618,82.7092178 86.0042051,79.9997092 C85.8833485,77.2995057 88.3870564,75 91,75 Z M9,54 C11.8000392,54 13.8743572,56.2912305 13.9957949,59 C14.1166515,61.7000465 11.6129439,64 9,64 C6.19938067,64 4.12506269,61.7087695 4.00420607,59 C3.88334945,56.2999535 6.38647602,54 9,54 Z M121.000271,48 C123.800158,48 125.874364,50.2912305 125.995795,53 C126.116645,55.7000465 123.613073,58 121.000271,58 C118.199803,58 116.125597,55.709351 116.004166,53 C115.883897,50.2999535 118.386888,48 121.000271,48 Z M171,37 C173.800619,37 175.874937,39.2912305 175.995794,42 C176.116651,44.7000465 173.613524,47 171,47 C168.199961,47 166.125643,44.709351 166.004205,42 C165.883349,39.2999535 168.387056,37 171,37 Z M53,28 C55.8006193,28 57.8749373,30.2912305 57.9957939,33 C58.1166506,35.7000465 55.613524,38 53,38 C50.1999608,38 48.1256428,35.709351 48.0042051,33 C47.8833485,30.2999535 50.3870561,28 53,28 Z M91,18 C93.80062,18 95.8743572,20.2912305 95.9957949,23 C96.1166515,25.7000465 93.6129436,28 91,28 C88.19938,28 86.1250618,25.7087695 86.0042051,23 C85.8833485,20.2999535 88.3870564,18 91,18 Z M142,12 C144.800039,12 146.874357,14.2912305 146.995795,17 C147.116651,19.7000465 144.612944,22 142,22 C139.199381,22 137.125063,19.709351 137.004206,17 C136.883349,14.2999535 139.386476,12 142,12 Z" id="dots" fill="#FFC800"></path>
    </g>
</svg>