<?xml version="1.0" encoding="UTF-8"?>
<svg width="180px" height="180px" viewBox="0 0 180 180" version="1.1" xmlns="http://www.w3.org/2000/svg" xmlns:xlink="http://www.w3.org/1999/xlink">
    <title>sticker-snake</title>
    <g id="sticker-snake" stroke="none" stroke-width="1" fill="none" fill-rule="evenodd">
        <path d="M168.665441,69.5580523 C168.129727,68.9614062 163.479059,64.94667 156.401262,60.4096347 C148.852018,55.0856438 133.943516,50.1212303 120.731284,55.7538313 C103.549988,63.078644 99.7821681,75.3940553 97.0637273,84.4639176 C94.7412078,92.2128353 94.5423089,97.4115119 89.4685116,98.8418727 C84.2624277,99.6545458 81.187001,95.1829733 79.1393748,93.5426641 C71.4503389,87.3816853 59.8302359,78.0710137 43.7532035,81.8570979 C29.9832102,85.0998413 19.819197,93.7053858 14.3607368,106.743693 C10.5084787,115.945416 10.4287315,124.17829 10.4319359,125.086819 C10.4432736,127.944268 11.6300994,130.522097 13.5337116,132.369549 C15.3899446,134.171177 17.9296578,135.27703 20.7250312,135.265432 C26.3875504,135.243831 30.9594096,130.649749 30.9368927,125.005926 C30.9368927,124.958232 31.0203927,120.023277 33.2842746,114.615119 C36.1880103,107.678875 41.1548526,103.470088 48.4676694,101.748418 C54.3680229,100.358738 59.1378427,103.739888 66.2925725,109.472554 C72.6512377,114.567425 83.9504755,121.446156 93.8288062,118.711216 C113.367805,113.302124 113.870681,99.7887444 116.710619,90.3153511 C118.998894,82.6809932 120.379459,78.0733516 128.679264,74.5944747 C135.155205,71.8801091 139.565693,73.4058585 144.287195,76.4232231 C148.893768,79.7711745 153.462343,82.700632 153.503155,82.7254143 C159.139874,86.2061616 163.642775,87.7520174 167.862339,83.9883776 C169.945617,82.130171 171.088348,79.6135963 171.256286,77.0362348 C171.428915,74.3938782 170.577497,71.6874616 168.665441,69.5580523" id="snake" fill="#FFC800"></path>
    </g>
</svg>