<?xml version="1.0" encoding="UTF-8"?>
<svg width="180px" height="180px" viewBox="0 0 180 180" version="1.1" xmlns="http://www.w3.org/2000/svg" xmlns:xlink="http://www.w3.org/1999/xlink">
    <title>sticker-star</title>
    <g id="sticker-star" stroke="none" stroke-width="1" fill="none" fill-rule="evenodd">
        <path d="M60.3400634,76.1061803 L18.6352384,95.4750789 C18.6352384,95.4750789 -1.63433409,104.74236 23.878461,109.800599 C46.1606694,114.218544 66.8917543,116.412443 66.8917543,116.412443 C66.8917543,116.412443 70.2005345,166 81.2292354,166 C92.2583612,166 108.521785,118.06498 108.521785,118.06498 C108.521785,118.06498 157.240664,134.963141 163.947042,135.145294 C173.791364,135.413215 167.807002,126.329785 167.807002,126.329785 L134.72005,83.3536479 C134.72005,83.3536479 152.921741,49.8817182 154.205136,43.5989378 C156.452353,32.5946248 143.54318,37.1526871 143.54318,37.1526871 L108.521785,52.3108448 L63.7440359,15.5839449 C63.7440359,15.5839449 54.2571093,9.15680106 55.537105,22.1957889 C56.5778451,32.7988565 60.3400634,76.1061803 60.3400634,76.1061803" id="star" fill="#FFC800"></path>
    </g>
</svg>